/* XPM */ static char * class_xpm[] = {
"16 16 26 1",
" 	c Red",
".	c #dead10",
"X	c #f7de84",
"o	c #c69418",
"O	c #f7d66b",
"+	c #efce52",
"@	c #efbd31",
"#	c #efb521",
"$	c #846308",
"%	c #d663d6",
"&	c #efb518",
"*	c #f7adf7",
"=	c #f794ff",
"-	c #de73de",
";	c #8c298c",
":	c #9c7b10",
">	c #6b8494",
",	c #d66bd6",
"<	c #ffefff",
"1	c #b539b5",
"2	c #5a9cd6",
"3	c #9cceff",
"4	c #4273c6",
"5	c #7bb5e7",
"6	c #00319c",
"7	c #3163b5",
"      .         ",
"     .Xo        ",
"    .XO+o       ",
"   .XO+@#$   %  ",
"  .XO+@&$   %*% ",
" .XO+@#$   %*=-;",
"  :+@@$>>>,*=-; ",
"   :&:  > <1-;  ",
"    :   >   ;   ",
"        >    2  ",
"        >   234 ",
"        >  23526",
"        >>23526 ",
"           726  ",
"            6   ",
"                "};/* XPM */
